<svg width="32" height="39" viewBox="0 0 32 39" fill="none" xmlns="http://www.w3.org/2000/svg">
<path d="M10.7724 32.3698C12.744 32.4498 14.7088 32.0494 16.5507 31.192C18.3926 30.3346 20.0743 29.0378 21.4963 27.378C22.9183 25.7183 24.0517 23.7295 24.8297 21.5289C25.6077 19.3284 26.0144 16.9609 26.0257 14.5664C26.9293 13.2091 27.6002 11.6464 27.9991 9.96988C28.0289 9.83742 28.0264 9.69734 27.9922 9.56651C27.9579 9.43567 27.8931 9.31966 27.8058 9.23244C27.7184 9.14521 27.6122 9.09051 27.4998 9.07489C27.3874 9.05928 27.2737 9.08344 27.1724 9.14445C26.6997 9.42065 26.1675 9.50987 25.6509 9.39953C25.1342 9.28919 24.6591 8.98487 24.2924 8.52942C23.8243 7.90724 23.2582 7.40543 22.6274 7.05373C21.9966 6.70202 21.3141 6.50758 20.6203 6.48192C19.9265 6.45627 19.2356 6.59991 18.5883 6.90435C17.9411 7.2088 17.3508 7.66784 16.8524 8.25428C16.17 9.0565 15.6702 10.0594 15.4015 11.1654C15.1328 12.2715 15.1044 13.4431 15.3191 14.5664C10.8524 14.8901 7.78574 12.3167 5.33241 8.78838C5.25871 8.68706 5.1623 8.61399 5.05495 8.57809C4.9476 8.54218 4.83396 8.545 4.72791 8.58619C4.62186 8.62739 4.52799 8.70518 4.45775 8.81006C4.38752 8.91494 4.34397 9.04238 4.33241 9.17682C3.86504 12.3238 4.20218 15.5691 5.29857 18.4768C6.39495 21.3844 8.19807 23.8152 10.4657 25.4426C8.94526 27.5593 6.81002 28.8814 4.50575 29.1328C4.38229 29.1576 4.26833 29.2287 4.17981 29.3361C4.09129 29.4435 4.03264 29.5817 4.01207 29.7316C3.9915 29.8814 4.01003 30.0353 4.06508 30.1717C4.12013 30.3081 4.20894 30.4202 4.31908 30.4923C6.32377 31.7084 8.53139 32.3507 10.7724 32.3698Z" fill="#383838"/>
</svg>
