<svg width="32" height="39" viewBox="0 0 32 39" fill="none" xmlns="http://www.w3.org/2000/svg">
<path d="M22.6667 5.66476C22.6667 5.45014 22.5964 5.2443 22.4714 5.09254C22.3464 4.94078 22.1768 4.85552 22 4.85552H18.6667C16.9882 4.75402 15.3448 5.46308 14.0956 6.82778C12.8465 8.19247 12.093 10.1018 12 12.1387V16.5086H8.66667C8.48986 16.5086 8.32029 16.5939 8.19526 16.7457C8.07024 16.8974 8 17.1033 8 17.3179V21.526C8 21.7406 8.07024 21.9464 8.19526 22.0982C8.32029 22.2499 8.48986 22.3352 8.66667 22.3352H12V33.1791C12 33.3937 12.0702 33.5995 12.1953 33.7513C12.3203 33.9031 12.4899 33.9883 12.6667 33.9883H16.6667C16.8435 33.9883 17.013 33.9031 17.1381 33.7513C17.2631 33.5995 17.3333 33.3937 17.3333 33.1791V22.3352H20.8267C20.9749 22.3378 21.1197 22.2803 21.238 22.1719C21.3563 22.0634 21.4415 21.9102 21.48 21.7364L22.44 17.5283C22.4665 17.4087 22.4701 17.2834 22.4504 17.1618C22.4308 17.0403 22.3884 16.9259 22.3266 16.8274C22.2647 16.7289 22.1851 16.649 22.0938 16.5937C22.0025 16.5384 21.902 16.5093 21.8 16.5086H17.3333V12.1387C17.3665 11.7381 17.5215 11.3669 17.768 11.0975C18.0146 10.8282 18.335 10.6801 18.6667 10.6821H22C22.1768 10.6821 22.3464 10.5968 22.4714 10.4451C22.5964 10.2933 22.6667 10.0875 22.6667 9.87283V5.66476Z" fill="#383838"/>
</svg>
