<svg width="32" height="38" viewBox="0 0 32 38" fill="none" xmlns="http://www.w3.org/2000/svg">
<path d="M20.2004 13.2999C19.1785 13.2957 18.1659 13.5309 17.2206 13.9919C16.2752 14.4529 15.4158 15.1308 14.6913 15.9867C13.9668 16.8426 13.3916 17.8597 12.9985 18.9799C12.6054 20.1001 12.4021 21.3013 12.4004 22.5149V31.8249C12.4004 32.2028 12.5268 32.5652 12.7519 32.8325C12.9769 33.0997 13.2821 33.2499 13.6004 33.2499H16.4004C16.7187 33.2499 17.0239 33.0997 17.2489 32.8325C17.474 32.5652 17.6004 32.2028 17.6004 31.8249V22.5149C17.6001 22.0832 17.6765 21.6564 17.8244 21.2622C17.9724 20.8679 18.1887 20.5152 18.4591 20.2269C18.7296 19.9385 19.0482 19.7211 19.3942 19.5888C19.7402 19.4565 20.1057 19.4123 20.4671 19.459C21.1151 19.556 21.7106 19.9319 22.1407 20.5156C22.5708 21.0993 22.8055 21.8501 22.8004 22.6257V31.8249C22.8004 32.2028 22.9268 32.5652 23.1519 32.8325C23.3769 33.0997 23.6821 33.2499 24.0004 33.2499H26.8004C27.1186 33.2499 27.4239 33.0997 27.6489 32.8325C27.874 32.5652 28.0004 32.2028 28.0004 31.8249V22.5149C27.9986 21.3013 27.7954 20.1001 27.4023 18.9799C27.0092 17.8597 26.434 16.8426 25.7095 15.9867C24.985 15.1308 24.1255 14.4529 23.1802 13.9919C22.2349 13.5309 21.2223 13.2957 20.2004 13.2999Z" fill="#383838"/>
<path d="M8.8 14.725H5.2C4.53726 14.725 4 15.363 4 16.15V31.825C4 32.612 4.53726 33.25 5.2 33.25H8.8C9.46274 33.25 10 32.612 10 31.825V16.15C10 15.363 9.46274 14.725 8.8 14.725Z" fill="#383838"/>
<path d="M7 11.875C8.65685 11.875 10 10.28 10 8.3125C10 6.34499 8.65685 4.75 7 4.75C5.34315 4.75 4 6.34499 4 8.3125C4 10.28 5.34315 11.875 7 11.875Z" fill="#383838"/>
</svg>
